<svg xmlns="http://www.w3.org/2000/svg" width="315" height="120" viewbox="0 0 315 120" fill="none">
  <path fill-rule="evenodd" clip-rule="evenodd" d="M150.561 0c-33.062 0-59.865 26.801-59.865 59.86 0 33.058 26.803 59.863 59.865 59.863s59.86-26.803 59.86-59.863S183.62 0 150.561 0Zm3.955 11.068c15.06 1.21 28.196 9.232 36.326 20.981l-27.876 16.084a17.02 17.02 0 0 0-8.45-4.889V11.069Zm-7.928 0v32.175a17.023 17.023 0 0 0-8.457 4.888l-27.878-16.084c8.134-11.753 21.273-19.775 36.335-20.98v.001Zm-40.243 69.85c-6.139-12.905-6.548-28.294-.091-41.956l27.9 16.027a17.01 17.01 0 0 0 .024 9.771l-27.833 16.158ZM112.3 90.4a48.205 48.205 0 0 1-1.781-2.363l27.971-16.172a16.995 16.995 0 0 0 7.708 4.446l.006 32.321c-13.705-1.209-25.782-8.07-33.904-18.232Zm38.256-21.852a8.703 8.703 0 1 1 0-17.405 8.698 8.698 0 0 1 8.698 8.701c0 4.806-3.896 8.704-8.698 8.704Zm4.367 40.084V76.315a16.993 16.993 0 0 0 7.718-4.446l27.983 16.161c-8.077 11.46-20.948 19.304-35.701 20.602Zm12.104-44.305c.887-3.198.767-6.533-.091-9.331L194.833 38.9c6.943 14.39 5.521 30.32.166 41.571l-27.974-16.144.002-.001ZM44.036 33.9c2.198 7.17 7.738 12.27 14.212 12.27l-.002.002c6.239 0 19.289-.248 30.883-.65 3.593-15.518 12.919-28.843 25.627-37.615h-56.51c-6.479 0-12.02 5.124-14.215 12.31h-5.437c-1.406 0-3.495 1.701-3.495 6.84 0 5.14 2.09 6.843 3.495 6.843h5.442ZM314.669 8v26.2l-72.383 4.406c-.509 3.028-2.537 6.335-7.434 7.434l-21.944 5.23c-2.446-17.937-12.439-33.465-26.676-43.288L314.669 8ZM114.893 31.14h.001-.001Zm22.747 13.112L114.894 31.14c7.126-8.932 17.303-14.805 28.558-16.49l.011 26.26a19.486 19.486 0 0 0-5.823 3.342Zm-29.771 32.189 22.7-13.188a19.406 19.406 0 0 1 .006-6.713l-22.78-13.074c-4.147 10.6-4.121 22.35.074 32.976v-.001Zm49.784-35.451.045-26.32c11.254 1.687 21.384 7.54 28.507 16.47l-22.8 13.104c-1.732-1.45-3.63-2.477-5.752-3.254Zm38.518 14.136a44.603 44.603 0 0 0-2.861-11.708l-22.833 13.12c.186 1.091.291 2.18.291 3.286 0 .444-.019.908-.052 1.35l25.455-6.048ZM70.821 88.804c-10.829 8.893-28.72 17.099-38.78 19.746-10.063 2.645-18.114 4.2-32.041 4.2v7.248c11.457 0 21.375-.046 37.601-2.428 20.028-2.94 42.469-11.022 60.93-22.366-4.976-7.179-8.301-15.31-9.942-24.226-5.002 6.142-11.206 12.44-17.768 17.826Zm79.737-34.569c3.087 0 5.602 2.519 5.602 5.608a5.61 5.61 0 0 1-5.602 5.609 5.617 5.617 0 0 1-5.608-5.61 5.619 5.619 0 0 1 5.608-5.607Z" fill="#FFF" />
</svg>
